HIERARCHY
ROOT Hips
{
	OFFSET 0.000000 0.000000 0.000000 
	CHANNELS 6 Xposition Yposition Zposition Zrotation Yrotation Xrotation
	JOINT LeftUpLeg
	{
		OFFSET 1.363060 -1.794630 0.839290 
		CHANNELS 3 Zrotation Yrotation Xrotation
		JOINT LeftLeg
		{
			OFFSET 2.448110 -6.726130 0.000000 
			CHANNELS 3 Zrotation Yrotation Xrotation
			JOINT LeftFoot
			{
				OFFSET 2.562200 -7.039590 0.000000 
				CHANNELS 3 Zrotation Yrotation Xrotation
				JOINT LeftToeBase
				{
					OFFSET 0.157640 -0.433110 2.322550 
					CHANNELS 3 Zrotation Yrotation Xrotation
					End Site
					{
						OFFSET 0.000000 0.000000 0.000000 
					}
				}
			}
		}
	}
	JOINT RightUpLeg
	{
		OFFSET -1.305520 -1.794630 0.839290 
		CHANNELS 3 Zrotation Yrotation Xrotation
		JOINT RightLeg
		{
			OFFSET -2.542530 -6.985550 0.000000 
			CHANNELS 3 Zrotation Yrotation Xrotation
			JOINT RightFoot
			{
				OFFSET -2.568260 -7.056230 0.000000 
				CHANNELS 3 Zrotation Yrotation Xrotation
				JOINT RightToeBase
				{
					OFFSET -0.164730 -0.452590 2.363150 
					CHANNELS 3 Zrotation Yrotation Xrotation
					End Site
					{
						OFFSET 0.000000 0.000000 0.000000 
					}
				}
			}
		}
	}
	JOINT Spine
	{
		OFFSET 0.028270 2.035590 -0.193380 
		CHANNELS 3 Zrotation Yrotation Xrotation
		JOINT Spine1
		{
			OFFSET 0.056720 2.048850 -0.042750 
			CHANNELS 3 Zrotation Yrotation Xrotation
			JOINT Neck1
			{
				OFFSET -0.054170 1.746240 0.172020 
				CHANNELS 3 Zrotation Yrotation Xrotation
				JOINT Head
				{
					OFFSET 0.104070 1.761360 -0.123970 
					CHANNELS 3 Zrotation Yrotation Xrotation
					End Site
					{
						OFFSET 0.000000 0.000000 0.000000 
					}
				}
			}
			JOINT LeftArm
			{
				OFFSET 3.362410 1.200890 -0.311210 
				CHANNELS 3 Zrotation Yrotation Xrotation
				JOINT LeftForeArm
				{
					OFFSET 4.983000 -0.000000 -0.000000 
					CHANNELS 3 Zrotation Yrotation Xrotation
					JOINT LeftHand
					{
						OFFSET 3.483560 -0.000000 -0.000000 
						CHANNELS 3 Zrotation Yrotation Xrotation
						JOINT LeftHandIndex1
						{
							OFFSET 0.715260 -0.000000 -0.000000 
							CHANNELS 3 Zrotation Yrotation Xrotation
							End Site
							{
								OFFSET 0.000000 0.000000 0.000000 
							}
						}
					}
				}
			}
			JOINT RightArm
			{
				OFFSET -3.136600 1.374050 -0.404650 
				CHANNELS 3 Zrotation Yrotation Xrotation
				JOINT RightForeArm
				{
					OFFSET -5.241900 -0.000000 -0.000000 
					CHANNELS 3 Zrotation Yrotation Xrotation
					JOINT RightHand
					{
						OFFSET -3.444170 -0.000000 -0.000000 
						CHANNELS 3 Zrotation Yrotation Xrotation
						JOINT RightHandIndex1
						{
							OFFSET -0.622530 -0.000000 -0.000000 
							CHANNELS 3 Zrotation Yrotation Xrotation
							End Site
							{
								OFFSET 0.000000 0.000000 0.000000 
							}
						}
					}
				}
			}
		}
	}
}
MOTION
Frames: 15
Frame Time: 0.041667
12.347143 16.463270 3.118131 33.745046 34.985576 -135.548124 9.299927 25.104536 4.988810 17.000421 18.563021 80.932514 3.533208 -3.034647 36.514657 0.025200 1.025100 2.818000 -0.312817 -11.692441 11.548408 -20.051606 -19.512498 88.927098 1.877900 -26.635332 20.520042 -1.071600 -6.580600 18.478700 2.005273 -6.714900 -8.639164 10.384736 -1.467082 -9.422142 5.873848 -3.243331 -8.035684 3.437400 -1.311200 0.181000 47.295178 -0.736633 -64.309183 24.753977 -37.298148 -8.031206 0.201769 0.210634 -92.206204 -7.125000 0.000000 0.000000 -23.410257 -8.030352 -61.425283 -42.110791 49.869786 -17.198117 -0.551071 -0.195865 18.271442 7.125000 0.000000 0.000000 
12.451852 16.597302 2.699744 31.960431 36.821686 -139.373424 7.770773 25.000920 4.806279 15.955092 18.404365 77.957463 3.296060 -4.554592 35.299278 0.000400 -0.129900 -0.357000 -0.340662 -11.253732 11.686936 -19.673959 -19.504730 87.921004 1.926055 -25.690215 19.320742 -0.821500 -5.783200 16.156700 1.937400 -6.503366 -8.658397 10.519593 -1.338804 -9.581507 5.480172 -2.628524 -8.267275 3.108200 -0.898500 0.428000 49.334284 -2.625177 -65.007015 23.796953 -36.490346 -7.494491 0.273515 0.221051 -93.439382 -7.125000 0.000000 0.000000 -23.989774 -6.015002 -59.724544 -42.620153 50.195202 -17.530040 -0.521605 -0.169090 18.888820 7.125000 0.000000 0.000000 
12.539485 16.704483 2.242821 29.964552 38.350021 -143.253348 6.311609 24.573690 4.531023 14.923567 18.190798 74.739126 3.182951 -3.813925 34.739271 0.022500 0.967500 2.659400 -0.210555 -10.812503 11.833804 -19.241120 -19.488493 86.752492 2.047928 -24.913904 17.795667 -0.807800 -5.735900 16.020000 1.959820 -6.604147 -8.694458 10.943343 -1.302729 -9.802382 5.284687 -2.006991 -8.484517 3.052600 -0.577800 0.400200 50.891621 -4.129428 -64.850788 23.143734 -35.959995 -7.141114 0.339236 0.220778 -94.553241 -7.125000 0.000000 0.000000 -24.649405 -3.828354 -57.516049 -43.176373 50.591379 -17.900272 -0.500435 -0.152053 19.024719 7.125000 0.000000 0.000000 
12.642508 16.801103 1.797919 27.747083 39.637924 -147.214986 4.943273 24.536823 4.359977 13.815790 17.887803 71.353114 3.015506 -3.963676 33.810503 0.010300 0.656400 1.803800 0.026629 -10.209084 11.700880 -18.885380 -19.472000 85.783849 2.255548 -24.629303 16.175704 -0.864900 -5.930200 16.582100 2.125765 -7.217018 -8.795559 11.893656 -1.387181 -10.308725 5.393580 -1.184486 -8.675560 3.409200 -0.093000 0.003200 51.219672 -4.813084 -62.807992 22.717419 -35.567341 -6.903588 0.406930 0.152385 -96.984453 -7.125000 0.000000 0.000000 -25.755857 -0.686881 -54.968140 -43.650998 51.036846 -18.215331 -0.474847 -0.134119 19.067501 7.125000 0.000000 0.000000 
12.750251 16.882780 1.340210 25.389097 40.907639 -151.037734 3.362380 24.674493 3.964711 12.723273 17.532779 67.991430 2.849656 -4.194471 32.824252 0.000000 0.020800 0.057200 0.188746 -9.384842 11.211399 -18.548117 -19.458020 84.835602 2.544827 -24.933987 14.611529 -0.943400 -6.186100 17.325400 2.249507 -7.662503 -8.873683 12.544362 -1.444142 -10.633873 5.329048 -0.504200 -8.736635 3.549300 0.280200 -0.240000 50.443247 -6.233247 -62.505039 22.266347 -34.930646 -6.605879 0.504370 -0.026604 -98.683454 -7.125000 0.000000 0.000000 -26.507516 1.877918 -52.543986 -44.383095 51.543200 -18.732700 -0.433988 -0.111989 19.060200 7.125000 0.000000 0.000000 
12.863049 16.948954 0.874074 23.007495 42.133986 -154.695811 1.727462 24.789249 3.441625 11.731585 17.154204 64.761000 2.660923 -3.252460 31.752269 0.011700 0.699600 1.922600 0.345405 -8.426607 10.443529 -18.218134 -19.447744 83.906504 2.777498 -25.164218 13.259371 -0.984400 -6.315200 17.701800 2.245134 -7.657055 -8.851998 12.455820 -1.457066 -10.535153 5.000989 -0.233758 -8.679496 3.330800 0.384600 -0.243500 49.460714 -8.233358 -64.879879 21.662407 -34.017063 -6.200373 0.563148 -0.197094 -98.395799 -7.125000 0.000000 0.000000 -26.570793 3.260114 -50.842892 -45.363516 52.048058 -19.461230 -0.407849 -0.104132 19.060066 7.125000 0.000000 0.000000 
12.979555 17.018048 0.426476 21.080329 43.058132 -157.946731 0.728061 25.088149 2.931829 10.857313 16.752141 61.820746 2.374842 -2.302398 30.021634 0.093200 1.969000 5.420100 1.238011 -7.283483 9.661999 -17.840403 -19.435848 82.861014 3.054026 -25.299533 11.361289 -1.047700 -6.509000 18.268500 2.199914 -7.523729 -8.787119 11.769529 -1.546299 -10.178568 4.948889 -0.171058 -8.249032 3.376700 0.411600 -0.060000 46.684805 -12.710862 -74.123579 23.349407 -35.282119 -7.045141 0.516868 -0.358659 -89.231760 -7.125000 0.000000 0.000000 -26.327790 4.612164 -49.867444 -46.088123 52.317709 -20.047568 -0.394765 -0.106622 19.181548 7.125000 0.000000 0.000000 
13.086848 17.092086 -0.009325 19.410207 43.799950 -160.962483 0.070254 25.220705 2.431290 9.900162 16.297895 59.118737 2.484564 -5.803861 30.147398 0.131500 -2.337700 -6.439800 2.426088 -6.627970 8.803609 -17.537536 -19.428013 82.041295 3.118080 -24.803923 10.031346 -0.769100 -5.600000 15.628000 2.109608 -7.402716 -8.734544 10.572450 -1.688414 -10.079254 5.145255 -0.434174 -8.053819 3.499300 0.282300 -0.024300 42.231789 -13.873799 -71.846751 27.775470 -39.051633 -9.597774 0.394151 -0.303727 -88.588777 -7.125000 0.000000 0.000000 -25.715710 6.138157 -49.124299 -46.363222 52.275135 -20.314531 -0.371919 -0.099042 19.307417 7.125000 0.000000 0.000000 
13.188412 17.178370 -0.422095 17.547180 44.493401 -164.061580 -0.719692 25.128752 1.857015 9.114056 15.879030 56.649708 2.464067 -6.991829 29.806920 0.313100 -3.596900 -9.945200 3.578400 -6.189827 7.971517 -17.219604 -19.421979 81.304818 4.021274 -25.905038 3.470997 -2.263300 -9.394200 27.036500 1.940758 -7.246258 -8.672158 9.342097 -1.804581 -10.192450 5.567182 -0.918617 -8.065159 3.786900 0.068700 0.013900 39.165841 -13.322015 -66.963394 31.521247 -41.948800 -11.909209 0.292123 -0.217957 -90.592380 -7.125000 0.000000 0.000000 -24.897008 7.277645 -48.671418 -46.029372 51.874509 -20.110557 -0.354003 -0.083773 19.540083 7.125000 0.000000 0.000000 
13.283796 17.263980 -0.835651 15.540818 45.233901 -167.050503 -1.823233 24.467792 1.167150 8.432243 15.502903 54.398697 2.429370 -6.984592 29.476112 0.255300 -3.250900 -8.978000 4.653448 -5.960572 6.990081 -17.008735 -19.404016 80.565282 2.971327 -23.579716 9.150515 -0.392900 -4.024600 11.145900 1.778820 -7.050143 -8.600740 8.538424 -1.825338 -10.277511 5.639540 -1.389189 -8.273991 3.806500 -0.165400 -0.086800 37.737288 -12.806407 -63.620087 33.496823 -43.369267 -13.184491 0.233113 -0.166646 -92.299124 -7.125000 0.000000 0.000000 -24.382506 8.148223 -48.666323 -44.968662 51.161813 -19.333781 -0.348026 -0.064460 20.148403 7.125000 0.000000 0.000000 
13.376709 17.366892 -1.237860 13.420198 46.087524 -169.888302 -3.203099 23.564815 0.354569 7.786272 15.143506 52.300495 2.402245 -7.196222 29.165397 0.243700 -3.176500 -8.770400 5.562831 -5.874395 5.802658 -16.720312 -19.386178 79.711471 3.187605 -24.260311 8.342917 -0.482900 -4.456000 12.363200 1.630175 -6.719091 -8.529529 8.155940 -1.712626 -10.230661 5.272921 -1.606650 -8.281871 3.559600 -0.308500 -0.116100 37.156939 -13.537708 -63.254183 34.405338 -43.967960 -13.770062 0.220290 -0.163214 -91.832280 -7.125000 0.000000 0.000000 -24.130827 8.678101 -48.817315 -43.703718 50.381317 -18.401638 -0.348132 -0.049214 20.874705 7.125000 0.000000 0.000000 
13.460296 17.479353 -1.635800 11.509154 46.972182 -172.404238 -4.454139 22.394412 -0.545761 7.235033 14.826487 50.452157 2.377585 -6.842291 28.946170 0.161600 -2.589900 -7.139000 6.570221 -6.043949 4.621842 -16.316920 -19.341632 78.495465 3.246452 -24.626502 8.394569 -0.421700 -4.168200 11.550200 1.467722 -6.262858 -8.440894 7.670822 -1.567236 -9.974595 4.754993 -1.728754 -8.171908 3.185200 -0.421700 -0.046900 37.161436 -14.805536 -64.269872 34.714227 -44.268522 -14.179992 -0.626476 -0.498776 -90.252708 -7.125000 0.000000 0.000000 -23.896593 8.833320 -49.022139 -42.565410 49.638227 -17.594769 -0.364588 -0.049037 21.271556 7.125000 0.000000 0.000000 
13.538940 17.609341 -2.022617 10.109344 47.927919 -174.406548 -5.350199 20.993140 -1.518241 6.767998 14.542541 48.793669 2.314403 -5.847358 28.560020 0.056000 -1.527600 -4.201700 7.868191 -6.497399 3.535916 -15.761038 -19.254661 76.857768 3.282542 -24.540543 7.831804 -0.496100 -4.515800 12.532500 1.321237 -5.836257 -8.363178 6.886291 -1.476308 -9.841350 4.285172 -1.905341 -8.279424 2.859700 -0.545200 -0.091000 37.648276 -15.378524 -64.623963 35.031405 -44.526774 -14.384502 -0.625812 -0.485559 -89.673656 -7.125000 0.000000 0.000000 -23.873358 8.924341 -49.014378 -41.103007 48.701697 -16.603214 -0.398739 -0.062490 21.158971 7.125000 0.000000 0.000000 
13.608147 17.749889 -2.402806 8.842234 49.095636 -176.284088 -6.058386 19.913482 -2.469111 6.346704 14.290704 47.460697 2.225871 -6.476020 27.525717 0.160300 -2.579800 -7.110900 9.117353 -7.269428 2.664257 -15.076945 -19.113381 74.830190 3.168946 -23.892589 7.612057 -0.488000 -4.479100 12.428600 1.154812 -5.526915 -8.306889 5.957940 -1.729711 -9.881035 4.114624 -2.109688 -8.337179 2.826500 -0.640900 -0.094900 38.499116 -15.296458 -64.058538 34.958483 -44.561789 -14.329879 -0.600429 -0.461778 -89.809792 -7.125000 0.000000 0.000000 -24.177390 8.627915 -48.328900 -39.220487 47.474412 -15.356331 -0.453860 -0.090905 20.523871 7.125000 0.000000 0.000000 
13.665108 17.894370 -2.788724 7.497281 50.476038 -178.153828 -6.717180 18.795372 -3.408802 5.986029 14.071271 46.280086 2.145570 -6.661938 26.622112 0.243900 -3.178000 -8.774600 10.374388 -8.078840 2.046404 -14.299272 -18.910852 72.503600 3.004117 -22.976114 7.402480 -0.451300 -4.310100 11.950700 1.030213 -5.032599 -8.244880 5.236913 -1.560115 -9.869929 4.130166 -2.417895 -8.504392 2.824500 -0.790400 -0.181000 39.513604 -15.174721 -63.859402 34.386634 -44.258182 -13.947227 -0.585742 -0.440494 -89.584025 -7.125000 0.000000 0.000000 -24.826332 7.966534 -46.799548 -37.331131 46.242398 -14.134410 -0.526179 -0.139696 19.370899 7.125000 0.000000 0.000000 
